<svg width="115" height="110" viewBox="0 0 115 110" fill="none" xmlns="http://www.w3.org/2000/svg">
<g filter="url(#filter0_d_724_425)">
<path fill-rule="evenodd" clip-rule="evenodd" d="M12.3664 37.3873C6.54454 45.5044 6.54455 56.4957 12.3664 64.6127L32.3336 92.4518C38.1554 100.569 48.4748 103.965 57.8947 100.865L90.2023 90.2313C99.6223 87.1309 106 78.2387 106 68.2055V33.7945C106 23.7612 99.6222 14.8691 90.2023 11.7687L57.8947 1.13508C48.4748 -1.96536 38.1554 1.43114 32.3336 9.54819L12.3664 37.3873Z" fill="url(#paint0_radial_724_425)" fill-opacity="0.25"/>
<path fill-rule="evenodd" clip-rule="evenodd" d="M107.944 39.453C112.019 46.5983 112.019 55.4017 107.944 62.547L92.5996 89.453C88.5247 96.5983 80.994 101 72.8442 101H42.1558C34.006 101 26.4753 96.5983 22.4004 89.453L7.05617 62.547C2.98128 55.4017 2.98128 46.5983 7.05617 39.453L22.4004 12.547C26.4753 5.40169 34.006 1 42.1558 1L72.8442 1C80.994 1 88.5247 5.40169 92.5996 12.547L107.944 39.453Z" fill="url(#paint1_radial_724_425)" fill-opacity="0.25"/>
<path fill-rule="evenodd" clip-rule="evenodd" d="M47.9249 20.9109C53.3362 17.0297 60.6638 17.0297 66.0751 20.9109L84.6345 34.2224C90.0459 38.1036 92.3102 44.9832 90.2433 51.2632L83.1542 72.8016C81.0873 79.0815 75.1592 83.3333 68.4703 83.3333H45.5296C38.8408 83.3333 32.9127 79.0815 30.8458 72.8016L23.7567 51.2632C21.6898 44.9832 23.9541 38.1036 29.3655 34.2224L47.9249 20.9109Z" fill="url(#paint2_radial_724_425)" fill-opacity="0.25"/>
<path fill-rule="evenodd" clip-rule="evenodd" d="M77.3122 37.5959C78.1999 38.4172 78.2327 39.7806 77.3852 40.641L54.0519 64.3333C53.6272 64.7646 53.0371 65.0059 52.422 64.9999C51.8069 64.9939 51.222 64.741 50.8063 64.3016L38.5841 51.3785C37.7548 50.5016 37.8159 49.1392 38.7206 48.3354C39.6253 47.5316 41.031 47.5908 41.8604 48.4677L52.4773 59.6934L74.1703 37.6667C75.0177 36.8062 76.4244 36.7745 77.3122 37.5959Z" fill="#F2F2F3"/>
</g>
<defs>
<filter id="filter0_d_724_425" x="0" y="0" width="115" height="110" filterUnits="userSpaceOnUse" color-interpolation-filters="sRGB">
<feFlood flood-opacity="0" result="BackgroundImageFix"/>
<feColorMatrix in="SourceAlpha" type="matrix" values="0 0 0 0 0 0 0 0 0 0 0 0 0 0 0 0 0 0 127 0" result="hardAlpha"/>
<feOffset dy="4"/>
<feGaussianBlur stdDeviation="2"/>
<feComposite in2="hardAlpha" operator="out"/>
<feColorMatrix type="matrix" values="0 0 0 0 0 0 0 0 0 0 0 0 0 0 0 0 0 0 0.25 0"/>
<feBlend mode="normal" in2="BackgroundImageFix" result="effect1_dropShadow_724_425"/>
<feBlend mode="normal" in="SourceGraphic" in2="effect1_dropShadow_724_425" result="shape"/>
</filter>
<radialGradient id="paint0_radial_724_425" cx="0" cy="0" r="1" gradientUnits="userSpaceOnUse" gradientTransform="translate(57 51) rotate(-46.1458) scale(70.7248 53.2019)">
<stop stop-color="#801AB3" stop-opacity="0"/>
<stop offset="1" stop-color="#4C4CFF"/>
</radialGradient>
<radialGradient id="paint1_radial_724_425" cx="0" cy="0" r="1" gradientUnits="userSpaceOnUse" gradientTransform="translate(57.5 51) rotate(-43.0632) scale(73.2274 55.0025)">
<stop stop-color="#801AB3" stop-opacity="0"/>
<stop offset="1" stop-color="#4C4CFF"/>
</radialGradient>
<radialGradient id="paint2_radial_724_425" cx="0" cy="0" r="1" gradientUnits="userSpaceOnUse" gradientTransform="translate(57 50.6667) rotate(136.146) scale(47.1499 35.4679)">
<stop stop-color="#801AB3" stop-opacity="0"/>
<stop offset="1" stop-color="#4C4CFF" stop-opacity="0.5"/>
</radialGradient>
</defs>
</svg>
